<?xml version="1.0" encoding="utf-8"?>
<!-- Generator: Adobe Illustrator 25.0.1, SVG Export Plug-In . SVG Version: 6.00 Build 0)  -->
<svg version="1.0"
	 id="katman_1" xmlns:cc="http://creativecommons.org/ns#" xmlns:dc="http://purl.org/dc/elements/1.1/" xmlns:rdf="http://www.w3.org/1999/02/22-rdf-syntax-ns#"
	 xmlns="http://www.w3.org/2000/svg" xmlns:xlink="http://www.w3.org/1999/xlink" x="0px" y="0px" viewBox="0 0 628.4 392"
	 style="enable-background:new 0 0 628.4 392;" xml:space="preserve">
<style type="text/css">
	.st0{fill:#FFB71B;}
</style>
<desc>A software company based in Canonsburg, Pennsylvania, United States that specialised in engineering simulation</desc>
<g transform="translate(10.6 -174)">
	<g transform="translate(.5 -.5)">
		<polygon class="st0" points="122.3,301.9 76.4,414.5 107.2,414.5 153.1,301.9 		"/>
		<polygon points="144.8,343.3 174.1,414.5 207.2,414.5 160.6,305.5 		"/>
		<path d="M262.3,333.9c-5.5,0-10.5,1.1-14.9,3.3c-4.4,2.2-8,5.5-10.7,9.7v-11.1h-23.4v78.2h24.1v-43.9c0-5.3,1.5-9.6,4.5-12.8
			c3-3.2,7-4.8,12-4.8c4.1,0,7.2,1.2,9.2,3.7c2,2.4,2.9,6.3,2.9,11.6v45.9H290v-47.1c0-11.1-2.3-19.3-6.9-24.8
			c-4.6-5.5-11.5-8.2-20.9-8.2V333.9z"/>
		<path d="M347.6,367.9l-13.2-3c-3.2-0.8-5.4-1.7-6.7-2.7c-1.3-1-1.9-2.3-1.9-4c0-2.3,1.1-4.1,3.2-5.4c2.1-1.3,5-1.9,8.8-1.9
			c8.1,0,16.2,2.9,24.5,8.6l6.4-15.9c-4.3-3.1-9-5.5-14.3-7.2c-5.3-1.7-10.8-2.6-16.4-2.6c-6.6,0-12.4,1.1-17.6,3.2
			c-5.2,2.1-9.1,5-11.9,8.8c-2.8,3.7-4.2,8-4.2,12.9c0,6.2,1.8,11,5.3,14.6c3.5,3.6,9.1,6.2,16.7,7.9l12.8,2.9
			c3.9,0.8,6.6,1.8,8.1,2.9c1.4,1.1,2.2,2.6,2.2,4.5c0,2.1-1,3.8-3.1,5c-2.1,1.2-5,1.8-8.7,1.8c-5.2,0-10.3-0.8-15.4-2.4
			c-5.1-1.6-9.8-3.8-14-6.7l-6.4,16.6c4.3,3.1,9.5,5.4,15.5,7.1c6,1.6,12.6,2.5,19.8,2.5c10.5,0,18.8-2.2,24.8-6.5
			c6-4.3,9-10.2,9-17.8c0-6.3-1.8-11.2-5.5-14.9C361.4,372.4,355.6,369.7,347.6,367.9L347.6,367.9z"/>
		<path d="M525.9,376.5c-3.7-3.7-9.5-6.4-17.4-8.2l-13.2-3c-3.2-0.8-5.4-1.7-6.7-2.7s-1.9-2.3-1.9-4c0-2.3,1.1-4.1,3.2-5.4
			c2.1-1.3,5-1.9,8.8-1.9c8.1,0,16.2,2.9,24.5,8.6l6.4-15.9c-4.3-3.1-9-5.5-14.3-7.2c-5.3-1.7-10.8-2.6-16.4-2.6
			c-6.6,0-12.4,1.1-17.6,3.2c-5.2,2.1-9.2,5-12,8.8c-2.8,3.7-4.2,8-4.2,12.9c0,6.2,1.8,11,5.3,14.6c3.5,3.6,9.1,6.2,16.6,7.9
			l12.8,2.9c3.9,0.8,6.6,1.8,8.1,2.9c1.4,1.1,2.2,2.6,2.2,4.5c0,2.1-1,3.8-3.1,5c-2.1,1.2-5,1.8-8.7,1.8c-5.2,0-10.3-0.8-15.4-2.4
			c-5.1-1.6-9.8-3.8-14-6.7l-6.4,16.6c4.4,3.1,9.5,5.4,15.5,7.1c6,1.6,12.6,2.5,19.8,2.5c10.5,0,18.8-2.2,24.8-6.5
			c6-4.3,9-10.2,9-17.8C531.4,385,529.5,380,525.9,376.5L525.9,376.5z"/>
		<polygon points="394.2,443 417.5,443 461,336.3 437.8,336.3 419,382.2 400.2,336.3 376.9,336.3 407,410.7 		"/>
	</g>
</g>
</svg>
