<?xml version="1.0" standalone="no"?>
<!DOCTYPE svg PUBLIC "-//W3C//DTD SVG 20010904//EN"
 "http://www.w3.org/TR/2001/REC-SVG-20010904/DTD/svg10.dtd">
<svg version="1.0" xmlns="http://www.w3.org/2000/svg"
 width="1563.000000pt" height="1563.000000pt" viewBox="0 0 1563.000000 1563.000000"
 preserveAspectRatio="xMidYMid meet">
<metadata>
Created by potrace 1.14, written by Peter Selinger 2001-2017
</metadata>
<g transform="translate(0.000000,1563.000000) scale(0.100000,-0.100000)"
fill="#000000" stroke="none">
<path d="M4126 14069 l-970 -391 -37 21 c-50 28 -75 26 -110 -8 -42 -42 -40
-84 7 -127 35 -34 35 -34 72 -19 20 9 43 24 51 35 7 11 23 20 35 20 11 0 239
-40 506 -88 l485 -88 3 -384 2 -384 46 79 c60 103 183 224 287 284 154 87 325
130 547 138 455 17 811 -156 970 -471 l30 -59 0 461 0 461 63 19 c269 81 1056
327 1054 329 -4 3 -2057 563 -2065 563 -4 0 -443 -176 -976 -391z"/>
<path d="M10446 14438 c-13 -19 -16 -62 -16 -265 0 -133 4 -253 9 -266 12 -30
43 -39 70 -20 20 14 21 23 21 278 0 226 -2 266 -16 279 -22 22 -50 20 -68 -6z"/>
<path d="M9330 13980 c-11 -11 -20 -26 -20 -33 0 -13 380 -397 394 -397 23 0
46 23 46 48 0 23 -35 62 -188 215 -104 103 -194 187 -200 187 -7 0 -21 -9 -32
-20z"/>
<path d="M11585 13990 c-37 -15 -375 -365 -375 -388 0 -29 42 -57 67 -43 10 5
98 90 196 189 140 141 178 185 175 202 -4 30 -37 50 -63 40z"/>
<path d="M10375 13660 c-304 -45 -552 -265 -636 -566 -29 -101 -31 -274 -5
-379 22 -91 81 -212 147 -300 58 -79 122 -205 145 -286 9 -31 19 -120 22 -206
8 -169 16 -191 83 -225 30 -16 69 -18 347 -18 338 0 354 2 402 54 24 26 25 35
31 184 9 215 47 328 159 482 140 191 188 338 177 535 -7 128 -26 197 -84 315
-40 80 -62 109 -138 185 -100 100 -169 145 -285 186 -121 43 -247 57 -365 39z
m325 -125 c205 -76 360 -235 427 -440 21 -66 26 -99 26 -190 1 -172 -40 -291
-148 -435 -130 -172 -178 -313 -193 -565 l-7 -120 -325 0 -325 0 -7 135 c-13
223 -65 377 -187 545 -75 103 -108 168 -132 263 -23 92 -25 240 -3 332 52 221
234 413 459 483 82 26 85 26 215 23 108 -3 135 -7 200 -31z"/>
<path d="M10443 12815 c-92 -102 -170 -193 -171 -202 -6 -25 17 -33 96 -33 39
0 72 -3 72 -7 0 -3 -36 -71 -81 -150 -44 -78 -77 -148 -74 -153 17 -27 55 3
224 180 215 224 219 233 106 238 -38 1 -75 4 -82 7 -8 3 10 49 53 140 63 129
72 165 40 165 -8 0 -90 -83 -183 -185z m106 2 c-34 -69 -58 -130 -55 -136 4
-6 40 -11 86 -11 43 0 81 -4 84 -8 2 -4 -74 -89 -170 -187 -136 -140 -169
-170 -150 -135 113 204 134 244 129 256 -3 9 -31 14 -90 16 l-84 3 151 168
c84 92 154 166 157 164 2 -2 -24 -61 -58 -130z"/>
<path d="M3030 13469 c-14 -51 -8 -86 32 -204 29 -86 30 -93 19 -154 -19 -103
-80 -218 -193 -366 l-23 -29 60 34 c33 18 66 38 73 43 23 18 24 -1 1 -62 -12
-34 -20 -64 -17 -67 13 -13 132 136 171 215 42 84 42 85 42 195 0 98 -3 118
-26 171 -46 104 -117 256 -122 262 -3 3 -11 -14 -17 -38z"/>
<path d="M5005 12964 c-245 -35 -463 -162 -604 -353 -61 -82 -132 -229 -157
-326 -18 -67 -19 -170 -19 -2670 0 -2444 1 -2610 18 -2770 58 -543 180 -992
371 -1373 550 -1093 1638 -1622 3336 -1622 658 0 1181 73 1688 234 75 24 182
56 237 72 70 20 107 36 125 54 14 15 86 59 160 100 117 63 370 224 370 236 0
2 -19 13 -42 25 -24 12 -45 23 -47 25 -2 2 13 38 35 80 36 71 37 77 23 102 -8
15 -39 40 -68 56 -74 40 -82 63 -70 202 12 130 23 151 101 179 100 36 104 48
62 184 -39 129 -64 148 -154 116 -84 -29 -106 -18 -210 111 -70 87 -73 107
-33 189 40 81 31 98 -82 157 -130 68 -157 65 -204 -29 -34 -67 -62 -76 -194
-65 -134 13 -153 24 -183 108 -32 89 -48 95 -170 59 -147 -43 -157 -58 -123
-177 17 -63 4 -89 -81 -160 -121 -101 -142 -107 -228 -62 -76 39 -96 29 -155
-84 -46 -88 -49 -91 -73 -80 -19 9 -44 8 -112 -5 -199 -38 -248 -42 -572 -42
-265 0 -346 3 -440 18 -629 99 -1022 349 -1269 808 -103 190 -168 409 -223
744 -8 50 -13 791 -17 2635 l-6 2565 -23 80 c-47 168 -137 319 -258 436 -118
112 -239 181 -389 219 -77 20 -254 33 -320 24z m4640 -7464 c221 -36 376 -251
336 -466 -12 -65 -50 -156 -71 -169 -11 -7 -720 338 -720 350 0 3 12 32 27 63
51 108 159 191 283 218 70 16 74 16 145 4z"/>
<path d="M8862 12858 c-7 -7 -12 -21 -12 -33 0 -43 11 -45 290 -45 279 0 290
2 290 45 0 43 -11 45 -290 45 -194 0 -269 -3 -278 -12z"/>
<path d="M11542 12858 c-17 -17 -15 -44 4 -62 13 -14 53 -16 278 -16 288 0
291 1 284 57 l-3 28 -275 3 c-206 2 -279 -1 -288 -10z"/>
<path d="M9503 11918 c-101 -100 -186 -190 -189 -200 -9 -28 14 -58 43 -58 21
0 65 38 210 182 187 186 205 212 171 246 -28 28 -55 9 -235 -170z"/>
<path d="M11228 12089 c-41 -23 -21 -51 170 -242 185 -185 211 -204 240 -175
29 29 10 55 -176 241 -104 103 -195 187 -203 187 -8 0 -22 -5 -31 -11z"/>
<path d="M10116 11634 c-9 -8 -16 -22 -16 -29 0 -7 7 -21 16 -29 13 -14 61
-16 368 -16 370 0 376 1 376 45 0 44 -6 45 -376 45 -307 0 -355 -2 -368 -16z"/>
<path d="M10110 11499 c-9 -16 -8 -26 5 -45 l15 -24 350 0 c304 0 351 2 364
16 19 18 21 45 4 62 -9 9 -105 12 -370 12 -351 0 -357 0 -368 -21z"/>
<path d="M10120 11380 c-11 -11 -20 -24 -20 -30 0 -5 9 -19 20 -30 19 -19 33
-20 358 -20 289 0 341 2 360 16 27 18 28 45 4 67 -17 15 -56 17 -360 17 -329
0 -343 -1 -362 -20z"/>
<path d="M9450 9046 l0 -2285 25 -19 c14 -11 50 -23 81 -27 84 -10 106 -36
144 -168 39 -135 36 -152 -35 -213 -85 -74 -83 -89 23 -218 76 -93 100 -98
177 -38 68 53 104 50 221 -16 126 -72 129 -76 129 -179 0 -111 6 -116 155
-133 109 -12 112 -11 135 10 17 16 25 38 30 82 11 89 34 110 166 148 59 16
114 30 123 30 30 0 71 -27 101 -69 34 -45 69 -62 103 -50 31 12 169 125 183
150 13 25 4 55 -33 101 -58 74 -58 88 3 205 30 58 67 117 84 130 27 24 34 25
101 19 66 -6 74 -5 98 16 22 20 27 35 37 131 14 129 8 151 -48 166 -21 6 -49
11 -63 11 -14 1 -36 7 -50 15 -23 13 -17 14 73 15 l97 0 0 2235 0 2235 -195 0
-195 0 0 -107 c0 -120 -16 -211 -53 -303 -74 -183 -222 -331 -390 -390 -78
-27 -237 -38 -320 -20 -172 35 -346 177 -430 350 -62 125 -77 189 -84 343 l-6
127 -193 0 -194 0 0 -2284z m1448 -2288 c-4 -83 -10 -114 -31 -160 -30 -67
-99 -145 -165 -187 -113 -71 -272 -81 -394 -24 -160 75 -248 213 -248 390 l0
83 421 0 421 0 -4 -102z"/>
<path d="M10213 11205 l20 -55 250 2 250 3 18 53 18 52 -288 0 -289 0 21 -55z"/>
<path d="M7093 3050 c-96 -20 -197 -101 -243 -195 -21 -42 -25 -64 -25 -145 0
-122 23 -178 106 -254 81 -76 147 -99 259 -94 90 5 153 29 218 82 36 31 88
110 97 149 l7 27 -88 0 -89 0 -22 -35 c-66 -101 -226 -96 -288 9 -82 139 -2
308 145 308 60 0 104 -23 138 -72 l27 -39 88 -1 c100 0 102 2 63 78 -32 63
-99 125 -166 156 -62 28 -162 40 -227 26z"/>
<path d="M5282 2793 c4 -282 10 -306 86 -375 48 -43 94 -58 182 -58 114 0 210
64 239 159 7 24 11 128 11 280 l0 241 -85 0 -85 0 0 -224 c0 -230 -7 -278 -40
-296 -30 -16 -76 -12 -101 9 -24 19 -24 20 -27 265 l-3 246 -91 0 -90 0 4
-247z"/>
<path d="M6040 2705 l0 -335 80 0 80 0 2 201 3 201 125 -201 125 -200 78 -1
77 0 0 335 0 335 -85 0 -86 0 7 -207 c4 -121 3 -205 -2 -200 -5 5 -63 97 -130
205 l-121 197 -76 3 -77 3 0 -336z"/>
<path d="M7931 3022 c-7 -13 -176 -431 -258 -639 -4 -10 18 -13 89 -13 l93 0
18 50 18 51 117 -3 116 -3 15 -47 15 -48 94 0 c85 0 94 2 88 18 -4 9 -64 160
-133 335 l-127 317 -68 0 c-54 0 -69 -3 -77 -18z m110 -298 c16 -53 29 -103
29 -111 0 -9 -17 -13 -65 -13 -36 0 -65 3 -65 8 0 15 64 221 68 218 2 -2 17
-48 33 -102z"/>
<path d="M8530 2705 l0 -335 190 0 190 0 0 75 0 75 -100 0 -100 0 0 260 0 260
-90 0 -90 0 0 -335z"/>
<path d="M9090 2705 l0 -335 190 0 190 0 0 75 0 75 -100 0 -100 0 0 260 0 260
-90 0 -90 0 0 -335z"/>
<path d="M9650 2705 l0 -335 185 0 185 0 0 75 0 75 -105 0 -106 0 3 58 3 57
103 3 102 3 0 74 0 75 -105 0 -105 0 0 50 0 50 105 0 105 0 0 75 0 75 -185 0
-185 0 0 -335z"/>
<path d="M10230 2704 l0 -336 178 4 c155 3 183 6 224 25 77 35 116 71 148 137
73 150 36 349 -83 446 -59 48 -117 59 -299 60 l-168 0 0 -336z m341 163 c48
-31 72 -85 71 -160 0 -123 -47 -176 -163 -185 l-69 -5 0 187 0 186 64 0 c49 0
71 -5 97 -23z"/>
<path d="M6910 2047 c-68 -16 -110 -38 -160 -83 -76 -69 -112 -157 -111 -277
0 -127 74 -237 200 -296 49 -23 69 -26 156 -26 122 0 170 19 249 97 69 70 99
143 99 250 1 66 -4 85 -31 141 -74 150 -241 230 -402 194z m164 -165 c16 -9
43 -34 60 -55 26 -32 31 -48 34 -106 5 -78 -16 -131 -68 -174 -84 -71 -224
-36 -271 67 -23 50 -25 136 -4 181 47 98 161 138 249 87z"/>
<path d="M9523 2050 c-166 -35 -272 -161 -281 -333 -5 -106 20 -177 86 -245
69 -71 147 -105 252 -110 70 -3 95 0 142 18 79 29 150 96 190 178 29 59 33 76
33 152 0 72 -4 93 -27 140 -72 146 -242 232 -395 200z m157 -169 c20 -10 48
-38 65 -66 25 -41 30 -58 29 -109 -1 -66 -12 -95 -53 -139 -37 -41 -73 -57
-126 -57 -208 0 -256 314 -59 386 44 16 93 11 144 -15z"/>
<path d="M10797 2049 c-77 -18 -133 -64 -161 -131 -21 -49 -20 -84 3 -135 22
-48 70 -83 174 -128 41 -18 79 -42 91 -58 19 -26 19 -30 6 -54 -34 -60 -92
-56 -118 7 l-17 40 -82 0 c-79 0 -83 -1 -83 -22 0 -82 69 -176 145 -197 52
-14 153 -14 196 0 99 34 150 119 134 225 -9 64 -52 107 -159 161 -133 66 -160
98 -118 136 35 32 102 12 102 -29 0 -11 18 -14 85 -14 84 0 85 0 85 25 0 71
-66 144 -152 170 -57 17 -75 17 -131 4z"/>
<path d="M4970 1705 l0 -335 85 0 85 0 0 335 0 335 -85 0 -85 0 0 -335z"/>
<path d="M5270 1705 l0 -335 80 0 80 0 2 202 3 202 125 -200 125 -199 78 -3
77 -3 0 336 0 335 -84 0 -85 0 6 -207 c3 -121 2 -205 -3 -200 -5 5 -64 97
-131 205 l-121 197 -76 3 -76 3 0 -336z"/>
<path d="M5970 1705 l0 -335 80 0 80 0 2 200 3 200 125 -200 125 -200 72 0 73
0 0 335 0 335 -82 0 -81 0 7 -206 c4 -114 3 -203 -2 -200 -5 3 -64 95 -132
206 l-123 200 -73 0 -74 0 0 -335z"/>
<path d="M7513 1705 l112 -336 89 3 89 3 109 324 c59 178 108 328 108 333 0 4
-38 8 -85 8 l-84 0 -14 -47 c-8 -27 -38 -130 -67 -231 -32 -109 -57 -178 -61
-170 -4 8 -36 111 -70 231 l-62 217 -88 0 -87 0 111 -335z"/>
<path d="M8198 1722 c-70 -174 -131 -325 -134 -335 -6 -16 1 -18 86 -15 l92 3
17 45 17 45 119 0 119 0 15 -47 15 -48 93 0 93 0 -18 43 c-9 24 -69 175 -132
335 l-115 292 -70 0 -70 0 -127 -318z m261 -104 c1 -15 -9 -18 -65 -18 l-66 0
6 31 c3 17 18 69 33 117 l27 87 32 -100 c18 -55 33 -108 33 -117z"/>
<path d="M8752 1968 l3 -73 68 -3 67 -3 0 -259 0 -260 85 0 85 0 0 260 0 260
65 0 65 0 0 75 0 75 -220 0 -221 0 3 -72z"/>
<path d="M10050 1706 l0 -336 80 0 79 0 3 108 3 107 74 -103 c41 -57 79 -106
86 -108 6 -3 51 -4 99 -2 l88 3 -86 107 c-47 59 -86 109 -86 112 0 3 20 14 44
24 149 67 153 309 6 392 -42 24 -55 25 -217 28 l-173 4 0 -336z m306 161 c21
-19 26 -31 26 -68 -1 -55 -30 -83 -94 -93 -74 -11 -78 -6 -78 95 l0 89 59 0
c48 0 65 -5 87 -23z"/>
</g>
</svg>
